# xmcd
#
# Track frame offsets:
#	150
#	15258
#	33174
#	48025
#	61490
#	77393
#	82128
#	86629
#	96143
#	112994
#	128020
#	146118
#	153672
#	161200
#	169982
#	182650
#	199444
#	205190
#	212082
#	219144
#	234540
#	247424
#	264097
#	271839
#	279995
#	289032
#	301982
#	318097
#	333919
#	345201
#
# Disc length: 4759 seconds
#
# Revision: 0
# Processed by: cddbd v1.5.2PL0 Copyright (c) Steve Scherf et al.
# Submitted via: dBpowerAMP V4.0
#
DISCID=a012951e
DTITLE=Die Campbells - 30 goue sokkie treffers
DYEAR=1900
DGENRE=
TTITLE0=Bietjie Bietjie lam
TTITLE1=Rooi rok bokkie
TTITLE2=Styf vas
TTITLE3=Youre my mate
TTITLE4=500 miles
TTITLE5=Daars iets innie water
TTITLE6=Jys die girl
TTITLE7=Meisie sonder sokkies
TTITLE8=Going back west
TTITLE9=Hay baby
TTITLE10=Summer of 69
TTITLE11=I whant to break free
TTITLE12=Dont forget to remember
TTITLE13=Green green grass of home
TTITLE14=Honderd jaar
TTITLE15=Jaloerse bokkie
TTITLE16=Gimme hope johanna
TTITLE17=Highway to your heart
TTITLE18=Radio dancing
TTITLE19=Burger dans
TTITLE20=Bokkie ek lui jou klokkie
TTITLE21=Lovesongs
TTITLE22=Queen of hearts
TTITLE23=Youre my heart, your my soul
TTITLE24=You want love
TTITLE25=vat my vas
TTITLE26=Cotten fields
TTITLE27=Is this the whay to amerillo
TTITLE28=Its you, its you, its you
TTITLE29=More and more
EXTD=
EXTT0=
EXTT1=
EXTT2=
EXTT3=
EXTT4=
EXTT5=
EXTT6=
EXTT7=
EXTT8=
EXTT9=
EXTT10=
EXTT11=
EXTT12=
EXTT13=
EXTT14=
EXTT15=
EXTT16=
EXTT17=
EXTT18=
EXTT19=
EXTT20=
EXTT21=
EXTT22=
EXTT23=
EXTT24=
EXTT25=
EXTT26=
EXTT27=
EXTT28=
EXTT29=
PLAYORDER=
